<?xml version="1.0" encoding="UTF-8"?>
<svg xmlns="http://www.w3.org/2000/svg" xmlns:xlink="http://www.w3.org/1999/xlink" width="470px" height="402px" viewBox="0 0 470 402" version="1.1">
<g id="surface1">
<path style=" stroke:none;fill-rule:nonzero;fill:rgb(100%,100%,100%);fill-opacity:1;" d="M 0 201 L 0 0 L 470 0 L 470 402 L 0 402 Z M 159.300781 249 C 166.199219 245.300781 172 237.5 172 232 C 172 227.199219 165.5 217.898438 161.300781 216.601562 C 159.398438 216 159 215.101562 159 212 C 159 208.5 159.199219 208.199219 162.300781 207.699219 C 164 207.398438 169.300781 206.398438 174 205.601562 C 179.5 204.601562 188.601562 204 199.800781 204 L 217 204 L 217 207.398438 C 217 209.898438 216.398438 211.199219 214.5 212.398438 C 212.5 213.699219 212 214.800781 212 218.300781 C 212.101562 225.699219 215.898438 228.398438 225 227.398438 C 230.101562 226.800781 231 227 231 228.300781 C 231 232 234.398438 239.699219 237.300781 242.800781 C 241.199219 247 247 250 250.699219 249.898438 C 258.898438 249.699219 268.699219 239.800781 269.699219 230.5 C 270.199219 226.300781 270.5 226 273.199219 226 C 274.800781 226 278.101562 227.300781 280.5 229 C 286.800781 233.398438 289 231.800781 292 220.699219 C 293.300781 215.898438 293.300781 215.800781 296.898438 216.300781 C 298.898438 216.601562 302.300781 217.199219 304.5 217.800781 C 306.699219 218.300781 319.101562 218.699219 332 218.601562 L 355.5 218.5 L 360.300781 215.699219 C 365.800781 212.398438 371 205.199219 371 200.699219 C 371 197.101562 367.800781 190 365.101562 187.601562 C 363.398438 186.101562 363 184.5 363 179.800781 C 363 175.5 363.398438 174 364.398438 174 C 365.199219 174 367 172.601562 368.398438 170.898438 C 371 167.898438 371 167.800781 371 149.898438 C 371 137.300781 370.601562 131.199219 369.800781 129.699219 C 368.699219 127.898438 368.398438 130.898438 368 148 L 367.5 168.5 L 360.300781 168.800781 C 353.398438 169.101562 353 169 353 166.898438 C 353 164.699219 353 164.699219 350.898438 166.601562 C 348 169.199219 333 169.898438 289.300781 169.300781 L 253.101562 168.699219 L 252.398438 171.601562 C 250.699219 178.699219 245.5 181 231.300781 181 L 222 181 L 222 174.5 C 222 170.601562 222.398438 168 223.101562 168 C 223.601562 168 223.800781 167.5 223.5 166.898438 C 223 166.300781 222.398438 166.5 221.601562 167.5 C 220.601562 168.898438 218.101562 169.101562 202.800781 168.800781 L 185.101562 168.5 L 184.5 180.5 L 159.5 180.5 L 159.199219 174.800781 L 158.898438 169 L 146 169 L 146 165.398438 C 146 163.398438 146.699219 159.300781 147.601562 156.300781 C 149.300781 150.5 148.699219 148.398438 145.699219 149.601562 C 144.800781 149.898438 143.601562 151.699219 143.101562 153.5 C 142.601562 155.398438 141.398438 158.699219 140.398438 160.898438 C 138.800781 164.601562 138.300781 165 134.898438 165 C 132.800781 165 131 164.398438 130.699219 163.800781 C 130.398438 163.101562 130.398438 164.300781 130.699219 166.5 C 131.101562 169.699219 130.199219 173.199219 126.601562 182.601562 C 124.101562 189.300781 122 195 122 195.398438 C 122 195.699219 121.101562 197.898438 120.101562 200.300781 C 119 202.601562 116.5 208.898438 114.5 214.199219 C 111.5 222 111.101562 224.199219 112 225.898438 C 113 227.898438 117.5 228.898438 118.199219 227.199219 C 119 225.199219 128.101562 221 131.601562 221 L 135.300781 221 L 134.601562 227.5 C 133.800781 235.101562 135.699219 240.699219 140.601562 245.101562 C 147.199219 251.199219 153 252.398438 159.300781 249 Z M 113.300781 158.601562 C 116.398438 157.300781 119.300781 156 119.699219 155.601562 C 120 155.300781 122 155 124.101562 155 C 127.199219 155 127.898438 155.398438 128.300781 157.300781 C 128.5 158.5 128.800781 156.199219 128.898438 152.199219 C 129.101562 138.300781 132.300781 136 151 136 L 163 136 L 163 146 C 163 154.601562 163.199219 156 164.601562 156 C 166.101562 156 166.199219 154.699219 165.601562 143.398438 C 165 133.101562 165.199219 130 166.5 125.898438 C 168.300781 120.601562 168 118 165.5 118 C 164.699219 118 164 117.601562 164 117 C 164 116.5 163.199219 116 162.199219 116 C 161.300781 116 159.800781 115 159 113.800781 C 157.601562 111.601562 157.5 111.699219 157 117 L 156.5 122.5 L 151.5 123.199219 C 148.800781 123.601562 143.699219 124.199219 140.398438 124.601562 L 134.300781 125.300781 L 133.5 121.398438 C 132.898438 118.601562 132.5 118.101562 132.300781 119.699219 C 131.898438 121.5 131 121.898438 125.699219 122.5 C 118 123.398438 109 125.398438 106.199219 126.898438 C 103.5 128.300781 103.199219 129.398438 102.5 143 C 101.898438 153.5 102.101562 154.800781 103.898438 157.800781 C 105.101562 159.5 106.300781 161 106.699219 161 C 107.199219 161 110.101562 159.898438 113.300781 158.601562 Z M 206 154 C 204.398438 151.101562 201.699219 150 196.101562 150 L 191 150 L 191 144 C 191 140.699219 190.601562 138 190 138 C 189.398438 138 189 141.699219 189 147 L 189 156 L 198 156 C 206.699219 156 207 155.898438 206 154 Z M 237.800781 153.300781 C 237.601562 151.300781 236.898438 150.5 235.601562 150.5 C 233 150.5 232.5 152.398438 234.5 154.398438 C 236.898438 156.800781 238.199219 156.300781 237.800781 153.300781 Z M 286.800781 154.800781 C 287.5 154.101562 288 150.898438 288 147.300781 C 288 141.699219 287.800781 141 286 141 C 284.300781 141 284 141.699219 284 145.5 L 284 150 L 277.800781 150 C 274.300781 150.101562 270.398438 150.699219 269.199219 151.398438 C 267 152.601562 266.898438 152.800781 268.5 154.300781 C 270.5 156.398438 284.898438 156.699219 286.800781 154.800781 Z M 340.601562 152.5 C 341.5 150.398438 342 145.898438 341.898438 140.800781 C 341.898438 136.199219 341.601562 133.199219 341.300781 134 C 341 134.800781 340.101562 135.898438 339.398438 136.300781 C 338.398438 136.898438 338 139.699219 338 146.5 C 338 151.699219 338.199219 156 338.601562 156 C 338.898438 156 339.800781 154.398438 340.601562 152.5 Z M 174.699219 148.800781 C 174.5 147.5 174.300781 148.5 174.300781 151 C 174.300781 153.5 174.5 154.5 174.699219 153.300781 C 174.898438 152 174.898438 150 174.699219 148.800781 Z M 306 145.800781 C 306 140.601562 305.699219 139 304.601562 139 C 302.601562 139 301.398438 150 303 153 C 304.800781 156.398438 306 153.699219 306 145.800781 Z M 324 146.398438 C 324 141.101562 323.699219 140.199219 322 139.699219 C 320.199219 139.199219 320 139.699219 320 145.199219 C 320 151.800781 321.601562 156.300781 323.101562 153.898438 C 323.601562 153.101562 324 149.699219 324 146.398438 Z M 324 146.398438 "/>
<path style=" stroke:none;fill-rule:nonzero;fill:rgb(54.509804%,36.862745%,65.882353%);fill-opacity:1;" d="M 144.398438 252.699219 C 139.601562 250.300781 135.300781 246.398438 133.300781 242.699219 C 131.300781 238.699219 130 230 131.101562 227.101562 C 131.601562 225.800781 131.898438 224.5 131.601562 224.300781 C 131.199219 223.898438 122.101562 228.699219 121 230 C 120.300781 230.699219 115.101562 233 114 233 C 112.398438 233 107 226.898438 107 225 C 107 223.300781 113.199219 205.898438 116.5 198.5 C 117.199219 196.898438 118.699219 193 119.800781 190 C 120.898438 187 123.101562 180.898438 124.800781 176.5 C 127.699219 168.601562 127.699219 168.398438 126.199219 163.5 C 124.300781 157.300781 124.601562 157.699219 122.300781 158.800781 C 116.898438 161.699219 109.101562 165 107.601562 165 C 104.699219 165 102.101562 163.101562 100.398438 159.800781 C 99 157 98.800781 154.5 99.398438 142.199219 C 99.800781 134.300781 100.398438 127.199219 100.699219 126.5 C 101.300781 124.800781 107.898438 120.800781 108.898438 121.5 C 109.300781 121.699219 111.199219 121.5 113.101562 121 C 116.898438 119.898438 122.101562 119.199219 126.300781 119.101562 C 128.300781 119 129 118.5 129 117.101562 C 129 113.601562 133.601562 109.300781 138.199219 108.601562 C 140.601562 108.199219 143.398438 107.699219 144.5 107.5 C 145.601562 107.300781 148.800781 106.800781 151.699219 106.398438 C 156.800781 105.800781 157.101562 105.898438 160.601562 109.398438 C 162.601562 111.398438 164.800781 113 165.601562 113 C 166.398438 113 167 113.398438 167 113.898438 C 167 114.398438 167.800781 115 168.800781 115.300781 C 171.699219 116 172.199219 121.101562 170.101562 127.300781 C 168.5 131.800781 168.300781 134.601562 168.699219 142.898438 C 169 148.5 169.699219 153 170.300781 153 C 170.800781 153 171 151.601562 170.699219 149.699219 C 169.898438 144.898438 173.601562 138 178.300781 135.398438 C 181.601562 133.601562 182.800781 133.398438 187.101562 134.199219 C 190.300781 134.800781 192.601562 134.800781 193.300781 134.101562 C 194 133.601562 197.898438 133.300781 202 133.398438 C 208 133.5 210.601562 134.101562 214.800781 136.300781 L 220 139 L 224.300781 136.300781 C 228 133.800781 229.5 133.5 236.601562 133.5 C 243.898438 133.5 245.101562 133.800781 249.800781 136.699219 C 253 138.699219 255.199219 139.5 255.601562 138.800781 C 257.398438 135.898438 264.601562 134 274 134 C 282.398438 134 283.800781 134.199219 285.300781 136.101562 L 287.101562 138.101562 L 290.601562 136 C 293.398438 134.199219 295 133.898438 299.300781 134.398438 C 305.699219 135.101562 307 135.101562 314.300781 134.398438 C 318.5 134 320.699219 134.199219 322.300781 135.300781 C 324.300781 136.601562 324.800781 136.601562 326.898438 134.898438 C 328.601562 133.5 330.199219 133.101562 332.398438 133.5 C 336.199219 134.199219 336.898438 133.601562 339.5 128.601562 C 342.300781 123 345.699219 121.898438 358.699219 122.398438 C 368.800781 122.699219 369.5 122.898438 371.699219 125.398438 C 373.898438 128.101562 374 128.601562 374 149.5 L 374 170.800781 L 371.398438 173.898438 C 370 175.601562 368.300781 177 367.601562 177 C 365.5 177 365.898438 182.601562 368.101562 184.601562 C 371.601562 187.699219 374.398438 195 374.300781 200.800781 C 374.300781 207.699219 370.300781 214.300781 363.601562 218.5 L 358.699219 221.5 L 329.601562 221.5 C 308.5 221.5 299.898438 221.199219 298.398438 220.300781 C 296.398438 219.101562 296.199219 219.398438 295 223.800781 C 293 231 291.300781 233.699219 288 234.800781 C 284.5 236.101562 283 235.699219 277.398438 231.898438 L 273.300781 229.101562 L 272.699219 233.601562 C 271.5 244.398438 261.898438 252.800781 250.699219 252.898438 C 244 253 239.101562 250.898438 234.300781 245.800781 C 231.5 242.898438 228 235 228 231.699219 C 228 230.898438 226.300781 230.601562 222.398438 230.800781 C 212.300781 231.5 208.199219 227.601562 208.199219 217.601562 C 208.199219 213.398438 208.601562 212.199219 211.199219 209.800781 L 214.199219 207 L 199.898438 207 C 191.300781 207 182.101562 207.699219 177 208.601562 C 172.300781 209.398438 167 210.398438 165.300781 210.699219 C 161.5 211.300781 161 212.601562 164.300781 213.601562 C 169.699219 215.300781 175 224.398438 175 232 C 175 238.101562 173.300781 242.398438 169.199219 246.699219 C 161.699219 254.398438 152.300781 256.699219 144.398438 252.699219 Z M 155.800781 239 C 159.800781 236.5 163.199219 231.199219 162.398438 228.5 C 161.601562 225.800781 158.101562 222.101562 154.699219 220.398438 C 152.300781 219.101562 151.601562 219.101562 148.398438 220.601562 C 139.398438 224.898438 139.5 234.898438 148.5 239.398438 C 152.300781 241.300781 151.898438 241.398438 155.800781 239 Z M 254.601562 237.398438 C 257.398438 235.5 260 231.101562 260 228.101562 C 260 225.5 255.699219 220.5 252 219 C 249.5 218 248.601562 218 245.800781 219.699219 C 241.5 222.199219 238.601562 227.199219 239.398438 230.601562 C 241.199219 237.5 249 241 254.601562 237.398438 Z M 144.5 202 C 163.898438 195.199219 184.199219 192.300781 204.898438 193.398438 C 211.800781 193.699219 218.699219 194.300781 220.300781 194.601562 C 222.300781 195.101562 223 194.898438 223 193.699219 C 223 192 222 191.601562 213.800781 190.101562 C 196.300781 187 175.898438 188.300781 156 193.699219 C 150.800781 195.101562 144.398438 196.5 141.800781 196.699219 L 137 197.199219 L 137 192.699219 C 137 190.300781 138.398438 183.800781 140.101562 178.398438 C 141.800781 172.898438 144 165.699219 145.101562 162.300781 C 147.101562 155.699219 147.601562 151 146.101562 151 C 145 151 145.5 149.898438 135.800781 175.5 C 131.5 187.101562 126.601562 200 125 204.199219 L 122.101562 212 L 128.800781 208.601562 C 132.5 206.800781 139.601562 203.800781 144.5 202 Z M 235 206.898438 C 237.300781 206.699219 237.300781 206.699219 235.300781 206.300781 C 233.300781 205.898438 233 205.300781 233 200.699219 C 233 197.800781 232.699219 193.800781 232.300781 191.699219 C 231.300781 185.199219 230 189.699219 230 200 C 230 207.300781 230.300781 209.101562 231.199219 208.199219 C 231.898438 207.5 233.5 206.898438 235 206.898438 Z M 313.800781 207.300781 C 311.699219 207.101562 308.300781 207.101562 306.300781 207.300781 C 304.199219 207.5 305.898438 207.699219 310 207.699219 C 314.101562 207.699219 315.800781 207.5 313.800781 207.300781 Z M 350 206.898438 C 344.199219 205.800781 342.800781 203.800781 343.199219 197.199219 C 343.398438 193.101562 343.300781 192.300781 342.300781 193.5 C 341.601562 194.5 341.398438 197.300781 341.699219 201 L 342.300781 206.898438 L 333.898438 207.300781 C 329.101562 207.398438 331.800781 207.601562 340 207.699219 C 350.898438 207.800781 353.398438 207.601562 350 206.898438 Z M 283 202.101562 C 283 194.300781 281.601562 192.5 281 199.5 L 280.5 205.5 L 276 206.101562 L 271.5 206.699219 L 277.300781 206.800781 L 283 207 Z M 321 197.800781 C 321 186.300781 319.300781 187.101562 318.800781 198.800781 C 318.601562 204.898438 318.800781 207 319.800781 207 C 320.699219 207 321 204.5 321 197.800781 Z M 298.199219 190.398438 C 298 180.5 297.601562 177 296.699219 177.300781 C 294.300781 178.101562 295.800781 204 298.199219 204 C 298.398438 204 298.398438 197.898438 298.199219 190.398438 Z M 361.101562 195.300781 C 360.300781 193.898438 360.101562 194.398438 360.101562 198 C 360.199219 202.199219 360.199219 202.300781 361.101562 199.800781 C 361.800781 198 361.800781 196.5 361.101562 195.300781 Z M 352.800781 188.300781 C 351.800781 188.101562 350.199219 188.101562 349.300781 188.300781 C 348.300781 188.601562 349.101562 188.800781 351 188.800781 C 352.898438 188.800781 353.699219 188.601562 352.800781 188.300781 Z M 270.800781 187.300781 C 269.300781 187.101562 266.601562 187.101562 264.800781 187.300781 C 263 187.5 264.199219 187.699219 267.5 187.699219 C 270.800781 187.699219 272.300781 187.5 270.800781 187.300781 Z M 170.800781 174.300781 C 171.101562 171 171.101562 171 166.601562 171 C 162.199219 171 162 171.101562 162 173.800781 C 162 177.601562 162.699219 178.199219 167 177.800781 C 170.101562 177.5 170.5 177.199219 170.800781 174.300781 Z M 181.800781 174.300781 C 182.101562 171.101562 182 171 178.101562 171 C 174.101562 171 174 171.101562 174 174.601562 C 174 178.101562 174.101562 178.101562 177.800781 177.800781 C 181.199219 177.5 181.5 177.199219 181.800781 174.300781 Z M 241.101562 177 C 245.199219 175.800781 248.5 172.601562 249.398438 168.800781 L 250 166 L 271.601562 166 C 283.699219 166 293.898438 165.601562 295 165 C 296.300781 164.300781 297.699219 164.5 300 165.601562 C 302.300781 166.800781 304.300781 167 307.300781 166.5 C 309.601562 166.101562 313.101562 165.800781 315 166 C 320.101562 166.300781 325.300781 166.199219 336.101562 165.800781 C 351.199219 165.300781 353 162.699219 353 141.5 L 353 128 L 350.199219 128 C 345.601562 128 345 129.5 345 141.199219 C 345 155.199219 343.601562 159 338.601562 159 L 335 159 L 335 139.898438 L 331.300781 140.199219 L 327.5 140.5 L 327 148.800781 C 326.5 157.5 325.699219 159 321.398438 159 C 318.398438 159 317 155.101562 317 147 C 317 140.300781 316.898438 140 314.601562 140 C 309.5 140 309 140.800781 309 148.199219 C 309 156.300781 307.898438 159 304.5 159 C 300.5 159 298.800781 155.199219 299.101562 147.300781 L 299.398438 140.5 L 296.5 140.199219 C 292.398438 139.699219 291 142.101562 291 150 C 291 153.800781 290.5 157.101562 289.800781 157.800781 C 289 158.601562 284.898438 159 277.898438 159 C 265.800781 159 264 158.199219 264 152.601562 C 264 148.398438 266.800781 147 275.101562 147 L 281.101562 147 L 280.800781 143.800781 C 280.5 140.5 280.5 140.5 274.5 140.199219 C 266.300781 139.800781 263 140.5 259.101562 143.800781 C 255.699219 146.699219 254.800781 150.699219 256.300781 156.300781 C 257 158.898438 256.898438 159 253.699219 159 L 250.300781 159 L 249.601562 152.800781 C 248.601562 143.101562 244.601562 139 236 139 C 230.5 139 225 141.601562 223.300781 145 C 222.601562 146.398438 222 150.101562 222 153.199219 C 222 158.101562 222.398438 159.398438 224.800781 162.101562 C 227.199219 164.800781 228.398438 165.300781 234.300781 165.699219 C 239.800781 166.199219 241 166.601562 240.800781 167.800781 C 240.398438 169.800781 237 170.800781 230.300781 170.898438 L 225 171 L 225 178 L 231.300781 178 C 234.699219 178 239.101562 177.5 241.101562 177 Z M 183.5 163.5 C 185.800781 161.199219 186 160.398438 186 150.5 C 186 140.199219 186 140 183.699219 140 C 179.199219 140 178.101562 141.898438 177.800781 150.5 L 177.5 158.5 L 168.800781 158.800781 L 160 159.101562 L 160 139 L 151 139 C 136.300781 139 132 142.300781 132 153.199219 C 132.101562 157.800781 134.101562 163.300781 135.398438 161.898438 C 136.199219 161 139.800781 152.398438 140.398438 149.800781 C 141.101562 146.800781 143.800781 145.601562 148.601562 146.199219 C 151.199219 146.5 151.5 146.898438 151.800781 150.300781 C 152 152.398438 151.398438 156.5 150.601562 159.398438 C 149.699219 162.398438 149 165.101562 149 165.398438 C 149 165.699219 156.199219 166 165 166 C 180.699219 166 181.101562 165.898438 183.5 163.5 Z M 218.300781 157.800781 C 218.101562 149.601562 216.5 145.199219 212.800781 142.5 C 209.300781 140.101562 203.101562 138.800781 198.300781 139.5 C 194.199219 140.101562 194 140.300781 194 143.601562 C 194 147 194.199219 147.101562 197.300781 146.898438 C 203.199219 146.5 205.101562 147 207.5 149.5 C 209.199219 151.101562 210 153 210 155.5 L 210 159 L 189 159 L 189 166.101562 L 203.800781 165.800781 L 218.5 165.5 Z M 364.5 147 L 364.5 128.5 L 361.5 128.199219 C 356.5 127.601562 356 129.398438 356 148.699219 L 356 166.101562 L 360.300781 165.800781 L 364.5 165.5 Z M 126.699219 140 C 142.699219 132 149 130.199219 149 133.601562 C 149 136.699219 153.199219 134.699219 154.5 131 C 157.398438 122.699219 157.398438 122.898438 154.800781 123.398438 C 152.398438 123.898438 143.601562 125.5 122.800781 129.101562 L 110 131.300781 L 110 139.699219 C 110 144.300781 110.101562 148 110.300781 148 C 110.5 148 117.898438 144.398438 126.699219 140 Z M 148.5 120.101562 C 153.300781 119.5 153.5 119.398438 153.5 116.300781 C 153.5 114.5 153.199219 113 152.800781 113 C 152.300781 113 150.699219 113 149 113 C 146.300781 113 146 113.300781 145.898438 116.300781 L 145.800781 119.5 L 144.800781 116.601562 C 143.898438 114.101562 143.398438 113.800781 140.300781 114.300781 C 135.800781 115.101562 135.898438 115 136.601562 118.898438 C 137.199219 121.898438 137.5 122.101562 140.398438 121.398438 C 142.101562 121 145.800781 120.5 148.5 120.101562 Z M 148.5 120.101562 "/>
<path style=" stroke:none;fill-rule:nonzero;fill:rgb(54.509804%,36.862745%,65.882353%);fill-opacity:1;" d="M 231.601562 157.398438 C 229.300781 155.101562 229.5 148.300781 231.898438 147 C 234.5 145.601562 238.300781 145.699219 239.800781 147.199219 C 240.5 147.898438 241 150.800781 241 153.699219 L 241 159 L 237.101562 159 C 234.800781 159 232.5 158.300781 231.601562 157.398438 Z M 231.601562 157.398438 "/>
<path style=" stroke:none;fill-rule:nonzero;fill:rgb(36.470588%,83.137255%,76.862745%);fill-opacity:1;" d="M 145.5 242.398438 C 141 240.199219 138.699219 236.300781 138.300781 230.601562 C 137.800781 224.398438 140.101562 220.101562 145.300781 217.699219 C 154.601562 213.199219 164.800781 218.699219 165.699219 228.699219 C 166.601562 239.601562 155.199219 247.398438 145.5 242.398438 Z M 145.5 242.398438 "/>
<path style=" stroke:none;fill-rule:nonzero;fill:rgb(36.470588%,83.137255%,76.862745%);fill-opacity:1;" d="M 244.300781 241.898438 C 234 238.800781 232.699219 222.800781 242.300781 217 C 250.101562 212.199219 260.699219 216.398438 263.101562 225.300781 C 264.398438 230.398438 262.101562 237 258.101562 240 C 254.699219 242.398438 248.601562 243.199219 244.300781 241.898438 Z M 244.300781 241.898438 "/>
<path style=" stroke:none;fill-rule:nonzero;fill:rgb(36.470588%,83.137255%,76.862745%);fill-opacity:1;" d="M 278 221 C 271.601562 215.898438 243.300781 202.398438 240.800781 203.199219 C 240.300781 203.398438 242.800781 204.699219 246.398438 206 C 258.398438 210.5 252.800781 211.398438 240.300781 206.898438 L 234 204.699219 L 234 197.398438 C 234 193.101562 234.398438 190 235 190 C 235.601562 190 236 192.800781 236 196.5 C 236 202.101562 236.300781 203 237.800781 202.898438 C 238.800781 202.898438 239 202.601562 238.300781 202.300781 C 237 201.800781 236.398438 193 237.601562 193 C 239.199219 193 253.699219 200.398438 259.699219 204.199219 C 267.5 209.300781 279.5 219.398438 280.398438 221.5 C 281.101562 223.398438 281 223.398438 278 221 Z M 278 221 "/>
<path style=" stroke:none;fill-rule:nonzero;fill:rgb(36.470588%,83.137255%,76.862745%);fill-opacity:1;" d="M 115 219.398438 C 115 218.601562 115.5 216.898438 116.199219 215.699219 C 117.5 213.300781 122.699219 199.601562 132.601562 173 C 142.199219 146.898438 141.601562 148 146 148 C 149.5 148 149.800781 148.199219 150.5 151.601562 C 151.101562 155.199219 150.800781 156.699219 142.898438 181.898438 C 139.300781 193.398438 139.300781 194.5 142.300781 193.5 C 168.5 185.5 195.300781 183.199219 216.5 187 C 226.398438 188.800781 226 188.5 226 194.199219 C 226 198.898438 225.898438 199.199219 223.800781 198.601562 C 222.5 198.300781 216.199219 197.5 209.699219 196.800781 C 196.199219 195.5 177.898438 196.699219 164.199219 200 C 148.699219 203.699219 129.601562 211.601562 119.699219 218.398438 C 115.300781 221.398438 115 221.5 115 219.398438 Z M 115 219.398438 "/>
<path style=" stroke:none;fill-rule:nonzero;fill:rgb(36.470588%,83.137255%,76.862745%);fill-opacity:1;" d="M 278.699219 218.300781 C 278.300781 218 278 216.5 278 215.199219 L 278 212.699219 L 280.5 215 C 281.898438 216.300781 283 217.699219 283 218.199219 C 283 219.199219 279.601562 219.300781 278.699219 218.300781 Z M 278.699219 218.300781 "/>
<path style=" stroke:none;fill-rule:nonzero;fill:rgb(36.470588%,83.137255%,76.862745%);fill-opacity:1;" d="M 265.101562 206.699219 C 261.300781 203.898438 261.101562 203.5 263 203.199219 C 264.898438 202.898438 272.300781 207 273.601562 209.199219 C 274.898438 211.199219 269.101562 209.5 265.101562 206.699219 Z M 265.101562 206.699219 "/>
<path style=" stroke:none;fill-rule:nonzero;fill:rgb(36.470588%,83.137255%,76.862745%);fill-opacity:1;" d="M 227 194.601562 C 227 190.5 227.5 186.800781 228 186.5 C 228.601562 186.101562 229 188.800781 229 193.898438 C 229 198.601562 228.601562 202 228 202 C 227.398438 202 227 198.898438 227 194.601562 Z M 227 194.601562 "/>
<path style=" stroke:none;fill-rule:nonzero;fill:rgb(36.470588%,83.137255%,76.862745%);fill-opacity:1;" d="M 106.398438 151.800781 C 106.699219 150.5 107 144.699219 107 138.898438 L 107 128.300781 L 110.800781 127.601562 C 112.800781 127.300781 121 125.800781 129 124.5 C 154.898438 119.898438 161.300781 118.898438 161.699219 119.398438 C 162 119.699219 160.898438 123.800781 159.300781 128.699219 L 156.300781 137.5 L 151.199219 137.800781 C 146.898438 138.101562 146 137.800781 146 136.5 C 146 135.601562 145.699219 135 145.300781 135.199219 C 144.800781 135.398438 136.199219 139.699219 126 144.800781 C 115.898438 149.800781 107.199219 154 106.699219 154 C 106.199219 154 106 153 106.398438 151.800781 Z M 106.398438 151.800781 "/>
<path style=" stroke:none;fill-rule:nonzero;fill:rgb(100%,81.960784%,30.588235%);fill-opacity:1;" d="M 215.800781 219.5 C 215.601562 219.199219 215.5 217.699219 215.800781 216.199219 C 216.101562 213.800781 216.898438 213.199219 220.398438 212.199219 C 226 210.800781 227 208.300781 227 196.601562 C 227 186 228 183.601562 232.5 184.199219 C 234.800781 184.398438 235.5 185 235.5 187 C 235.601562 188.398438 235.699219 192.5 235.800781 196.300781 C 235.898438 200.898438 236.398438 203 237.300781 203 C 239.300781 203 253 208.398438 253 209.300781 C 253 209.699219 248.898438 210 244 210 L 234.898438 210 L 232.898438 213.398438 C 231.800781 215.300781 229.398438 217.5 227.601562 218.398438 C 224.398438 219.898438 216.898438 220.601562 215.800781 219.5 Z M 215.800781 219.5 "/>
<path style=" stroke:none;fill-rule:nonzero;fill:rgb(100%,81.960784%,30.588235%);fill-opacity:1;" d="M 278.398438 217.601562 C 277.199219 214.300781 278.5 211.5 281.5 210.898438 C 283.5 210.5 282.101562 210.199219 277.300781 210.101562 C 270.800781 210 269.601562 209.601562 265.398438 206.800781 L 260.800781 203.5 L 269.199219 203 L 277.5 202.5 L 277.800781 199.300781 C 278 196.898438 277.5 195.398438 275.601562 193.5 C 273.300781 191.199219 272.300781 191 265 191 C 257.300781 191 257 190.898438 257 188.699219 C 257 184.800781 258.898438 184 267.300781 184 C 276.5 184 281.300781 185.800781 284.101562 190.398438 C 285.699219 192.898438 286 195.398438 286.101562 203 C 286.101562 216.898438 286.101562 217.101562 285.398438 218.101562 C 284.5 219.5 279 219.101562 278.398438 217.601562 Z M 278.398438 217.601562 "/>
<path style=" stroke:none;fill-rule:nonzero;fill:rgb(100%,81.960784%,30.588235%);fill-opacity:1;" d="M 297.101562 208.398438 C 293.199219 205.101562 291.800781 198.5 292.199219 185 L 292.5 174.5 L 296.800781 174.199219 L 301 173.898438 L 301 186.699219 C 301 203 301.601562 204.199219 309.800781 203.800781 L 315.5 203.5 L 315.800781 195.199219 C 316.101562 187.601562 316.300781 186.800781 318.5 185.800781 C 323.199219 183.699219 324 185.101562 324 195 L 324 204 L 338.800781 204 L 338.300781 198.199219 C 337.800781 193 338 192.101562 340.5 189.199219 C 345.699219 183.101562 355.5 182.800781 361.398438 188.699219 C 366.699219 194 366.300781 202.601562 360.398438 207.699219 L 356.699219 211 L 328.398438 210.898438 L 300 210.898438 Z M 355 202 C 356.101562 200.898438 357 198.898438 357 197.5 C 357 194.5 353 191.601562 350 192.5 C 345.5 193.898438 344.898438 201.199219 349.300781 203 C 352.5 204.300781 352.800781 204.199219 355 202 Z M 355 202 "/>
<path style=" stroke:none;fill-rule:nonzero;fill:rgb(100%,81.960784%,30.588235%);fill-opacity:1;" d="M 310.898438 179.898438 C 310.300781 179.601562 310 178 310.199219 176.398438 C 310.5 173.800781 310.898438 173.5 314.300781 173.199219 L 318.101562 172.898438 L 317.800781 176.699219 C 317.5 180.101562 317.199219 180.5 314.699219 180.5 C 313.199219 180.601562 311.5 180.300781 310.898438 179.898438 Z M 310.898438 179.898438 "/>
<path style=" stroke:none;fill-rule:nonzero;fill:rgb(100%,81.960784%,30.588235%);fill-opacity:1;" d="M 321 176.398438 C 321 172.898438 321.101562 172.898438 324.800781 173.199219 C 328.199219 173.5 328.5 173.800781 328.800781 176.800781 C 329.101562 179.898438 329 180 325.101562 180 C 321.101562 180 321 179.898438 321 176.398438 Z M 321 176.398438 "/>
</g>
</svg>
